<mxfile host="app.diagrams.net" agent="Mozilla/5.0 (Macintosh; Intel Mac OS X 10_15_7) AppleWebKit/537.36 (KHTML, like Gecko) Chrome/128.0.0.0 Safari/537.36" version="24.7.12">
  <diagram id="R2lEEEUBdFMjLlhIrx00" name="Page-1">
    <mxGraphModel dx="4639" dy="3860" grid="0" gridSize="10" guides="1" tooltips="1" connect="1" arrows="1" fold="1" page="1" pageScale="1" pageWidth="850" pageHeight="1100" background="none" math="0" shadow="0" extFonts="Permanent Marker^https://fonts.googleapis.com/css?family=Permanent+Marker">
      <root>
        <mxCell id="0" />
        <mxCell id="1" parent="0" />
        <mxCell id="C-vyLk0tnHw3VtMMgP7b-1" value="" style="edgeStyle=orthogonalEdgeStyle;endArrow=ERmany;startArrow=ERone;endFill=0;startFill=0;" parent="1" source="C-vyLk0tnHw3VtMMgP7b-24" target="C-vyLk0tnHw3VtMMgP7b-6" edge="1">
          <mxGeometry width="100" height="100" relative="1" as="geometry">
            <mxPoint x="340" y="720" as="sourcePoint" />
            <mxPoint x="440" y="620" as="targetPoint" />
          </mxGeometry>
        </mxCell>
        <mxCell id="C-vyLk0tnHw3VtMMgP7b-12" value="" style="edgeStyle=orthogonalEdgeStyle;endArrow=ERmandOne;startArrow=ERmany;endFill=0;startFill=0;entryX=0;entryY=0.5;entryDx=0;entryDy=0;" parent="1" source="C-vyLk0tnHw3VtMMgP7b-9" target="C-vyLk0tnHw3VtMMgP7b-14" edge="1">
          <mxGeometry width="100" height="100" relative="1" as="geometry">
            <mxPoint x="590" y="182" as="sourcePoint" />
            <mxPoint x="677" y="208" as="targetPoint" />
          </mxGeometry>
        </mxCell>
        <mxCell id="C-vyLk0tnHw3VtMMgP7b-2" value="StudentSubject" style="shape=table;startSize=30;container=1;collapsible=1;childLayout=tableLayout;fixedRows=1;rowLines=0;fontStyle=1;align=center;resizeLast=1;" parent="1" vertex="1">
          <mxGeometry x="390" y="110" width="250" height="100" as="geometry">
            <mxRectangle x="390" y="110" width="120" height="30" as="alternateBounds" />
          </mxGeometry>
        </mxCell>
        <mxCell id="2qvcOWGBDOMqWSujJLUs-58" value="" style="shape=partialRectangle;collapsible=0;dropTarget=0;pointerEvents=0;fillColor=none;points=[[0,0.5],[1,0.5]];portConstraint=eastwest;top=0;left=0;right=0;bottom=1;strokeColor=#0F8B8D;backgroundOutline=1;rounded=1;labelBackgroundColor=none;fontColor=#143642;linecap=square;" parent="2qvcOWGBDOMqWSujJLUs-57" vertex="1">
          <mxGeometry y="30" width="250" height="30" as="geometry" />
        </mxCell>
        <mxCell id="2qvcOWGBDOMqWSujJLUs-59" value="PK" style="shape=partialRectangle;overflow=hidden;connectable=0;fillColor=none;top=0;left=0;bottom=0;right=0;fontStyle=1;strokeColor=#0F8B8D;backgroundOutline=1;rounded=1;labelBackgroundColor=none;fontColor=#143642;linecap=square;" parent="2qvcOWGBDOMqWSujJLUs-58" vertex="1">
          <mxGeometry width="40" height="30" as="geometry">
            <mxRectangle width="40" height="30" as="alternateBounds" />
          </mxGeometry>
        </mxCell>
        <mxCell id="2qvcOWGBDOMqWSujJLUs-60" value="classessubjects_id" style="shape=partialRectangle;overflow=hidden;connectable=0;fillColor=none;top=0;left=0;bottom=0;right=0;align=left;spacingLeft=6;fontStyle=5;strokeColor=#0F8B8D;backgroundOutline=1;rounded=1;labelBackgroundColor=none;fontColor=#143642;linecap=square;" parent="2qvcOWGBDOMqWSujJLUs-58" vertex="1">
          <mxGeometry x="40" width="210" height="30" as="geometry">
            <mxRectangle width="210" height="30" as="alternateBounds" />
          </mxGeometry>
        </mxCell>
        <mxCell id="2qvcOWGBDOMqWSujJLUs-64" value="" style="shape=partialRectangle;collapsible=0;dropTarget=0;pointerEvents=0;fillColor=none;points=[[0,0.5],[1,0.5]];portConstraint=eastwest;top=0;left=0;right=0;bottom=0;strokeColor=#0F8B8D;backgroundOutline=1;rounded=1;labelBackgroundColor=none;fontColor=#143642;linecap=square;" parent="2qvcOWGBDOMqWSujJLUs-57" vertex="1">
          <mxGeometry y="60" width="250" height="30" as="geometry" />
        </mxCell>
        <mxCell id="2qvcOWGBDOMqWSujJLUs-65" value="FK" style="shape=partialRectangle;overflow=hidden;connectable=0;fillColor=none;top=0;left=0;bottom=0;right=0;strokeColor=#0F8B8D;backgroundOutline=1;rounded=1;labelBackgroundColor=none;fontColor=#143642;linecap=square;" parent="2qvcOWGBDOMqWSujJLUs-64" vertex="1">
          <mxGeometry width="40" height="30" as="geometry">
            <mxRectangle width="40" height="30" as="alternateBounds" />
          </mxGeometry>
        </mxCell>
        <mxCell id="2qvcOWGBDOMqWSujJLUs-66" value="class_id" style="shape=partialRectangle;overflow=hidden;connectable=0;fillColor=none;top=0;left=0;bottom=0;right=0;align=left;spacingLeft=6;strokeColor=#0F8B8D;backgroundOutline=1;rounded=1;labelBackgroundColor=none;fontColor=#143642;linecap=square;" parent="2qvcOWGBDOMqWSujJLUs-64" vertex="1">
          <mxGeometry x="40" width="210" height="30" as="geometry">
            <mxRectangle width="210" height="30" as="alternateBounds" />
          </mxGeometry>
        </mxCell>
        <mxCell id="2qvcOWGBDOMqWSujJLUs-61" value="" style="shape=partialRectangle;collapsible=0;dropTarget=0;pointerEvents=0;fillColor=none;points=[[0,0.5],[1,0.5]];portConstraint=eastwest;top=0;left=0;right=0;bottom=0;strokeColor=#0F8B8D;backgroundOutline=1;rounded=1;labelBackgroundColor=none;fontColor=#143642;linecap=square;" parent="2qvcOWGBDOMqWSujJLUs-57" vertex="1">
          <mxGeometry y="90" width="250" height="30" as="geometry" />
        </mxCell>
        <mxCell id="2qvcOWGBDOMqWSujJLUs-62" value="FK" style="shape=partialRectangle;overflow=hidden;connectable=0;fillColor=none;top=0;left=0;bottom=0;right=0;strokeColor=#0F8B8D;backgroundOutline=1;rounded=1;labelBackgroundColor=none;fontColor=#143642;linecap=square;" parent="2qvcOWGBDOMqWSujJLUs-61" vertex="1">
          <mxGeometry width="40" height="30" as="geometry">
            <mxRectangle width="40" height="30" as="alternateBounds" />
          </mxGeometry>
        </mxCell>
        <mxCell id="2qvcOWGBDOMqWSujJLUs-63" value="subject_id" style="shape=partialRectangle;overflow=hidden;connectable=0;fillColor=none;top=0;left=0;bottom=0;right=0;align=left;spacingLeft=6;strokeColor=#0F8B8D;backgroundOutline=1;rounded=1;labelBackgroundColor=none;fontColor=#143642;linecap=square;" parent="2qvcOWGBDOMqWSujJLUs-61" vertex="1">
          <mxGeometry x="40" width="210" height="30" as="geometry">
            <mxRectangle width="210" height="30" as="alternateBounds" />
          </mxGeometry>
        </mxCell>
        <mxCell id="C-vyLk0tnHw3VtMMgP7b-13" value="Subjects" style="shape=table;startSize=30;container=1;collapsible=1;childLayout=tableLayout;fixedRows=1;rowLines=0;fontStyle=1;align=center;resizeLast=1;" parent="1" vertex="1">
          <mxGeometry x="750" y="140" width="250" height="210" as="geometry" />
        </mxCell>
        <mxCell id="2qvcOWGBDOMqWSujJLUs-90" value="" style="shape=partialRectangle;collapsible=0;dropTarget=0;pointerEvents=0;fillColor=none;points=[[0,0.5],[1,0.5]];portConstraint=eastwest;top=0;left=0;right=0;bottom=1;strokeColor=#0F8B8D;backgroundOutline=1;rounded=1;labelBackgroundColor=none;fontColor=#143642;linecap=square;" parent="2qvcOWGBDOMqWSujJLUs-89" vertex="1">
          <mxGeometry y="30" width="250" height="30" as="geometry" />
        </mxCell>
        <mxCell id="2qvcOWGBDOMqWSujJLUs-91" value="PK" style="shape=partialRectangle;overflow=hidden;connectable=0;fillColor=none;top=0;left=0;bottom=0;right=0;fontStyle=1;strokeColor=#0F8B8D;backgroundOutline=1;rounded=1;labelBackgroundColor=none;fontColor=#143642;linecap=square;" parent="2qvcOWGBDOMqWSujJLUs-90" vertex="1">
          <mxGeometry width="40" height="30" as="geometry">
            <mxRectangle width="40" height="30" as="alternateBounds" />
          </mxGeometry>
        </mxCell>
        <mxCell id="2qvcOWGBDOMqWSujJLUs-92" value="studentssubjects_id" style="shape=partialRectangle;overflow=hidden;connectable=0;fillColor=none;top=0;left=0;bottom=0;right=0;align=left;spacingLeft=6;fontStyle=5;strokeColor=#0F8B8D;backgroundOutline=1;rounded=1;labelBackgroundColor=none;fontColor=#143642;linecap=square;" parent="2qvcOWGBDOMqWSujJLUs-90" vertex="1">
          <mxGeometry x="40" width="210" height="30" as="geometry">
            <mxRectangle width="210" height="30" as="alternateBounds" />
          </mxGeometry>
        </mxCell>
        <mxCell id="C-vyLk0tnHw3VtMMgP7b-17" value="" style="shape=partialRectangle;collapsible=0;dropTarget=0;pointerEvents=0;fillColor=none;points=[[0,0.5],[1,0.5]];portConstraint=eastwest;top=0;left=0;right=0;bottom=0;" parent="C-vyLk0tnHw3VtMMgP7b-13" vertex="1">
          <mxGeometry y="60" width="250" height="20" as="geometry" />
        </mxCell>
        <mxCell id="C-vyLk0tnHw3VtMMgP7b-18" value="" style="shape=partialRectangle;overflow=hidden;connectable=0;fillColor=none;top=0;left=0;bottom=0;right=0;" parent="C-vyLk0tnHw3VtMMgP7b-17" vertex="1">
          <mxGeometry width="30" height="20" as="geometry">
            <mxRectangle width="30" height="20" as="alternateBounds" />
          </mxGeometry>
        </mxCell>
        <mxCell id="C-vyLk0tnHw3VtMMgP7b-19" value="subject_code" style="shape=partialRectangle;overflow=hidden;connectable=0;fillColor=none;top=0;left=0;bottom=0;right=0;align=left;spacingLeft=6;" parent="C-vyLk0tnHw3VtMMgP7b-17" vertex="1">
          <mxGeometry x="30" width="220" height="20" as="geometry">
            <mxRectangle width="220" height="20" as="alternateBounds" />
          </mxGeometry>
        </mxCell>
        <mxCell id="wVWFbtOWtliaWHri5OGp-19" value="" style="shape=partialRectangle;collapsible=0;dropTarget=0;pointerEvents=0;fillColor=none;points=[[0,0.5],[1,0.5]];portConstraint=eastwest;top=0;left=0;right=0;bottom=0;" vertex="1" parent="C-vyLk0tnHw3VtMMgP7b-13">
          <mxGeometry y="80" width="250" height="30" as="geometry" />
        </mxCell>
        <mxCell id="2qvcOWGBDOMqWSujJLUs-94" value="FK" style="shape=partialRectangle;overflow=hidden;connectable=0;fillColor=none;top=0;left=0;bottom=0;right=0;strokeColor=#0F8B8D;backgroundOutline=1;rounded=1;labelBackgroundColor=none;fontColor=#143642;linecap=square;" parent="2qvcOWGBDOMqWSujJLUs-93" vertex="1">
          <mxGeometry width="40" height="30" as="geometry">
            <mxRectangle width="40" height="30" as="alternateBounds" />
          </mxGeometry>
        </mxCell>
        <mxCell id="2qvcOWGBDOMqWSujJLUs-95" value="student_id" style="shape=partialRectangle;overflow=hidden;connectable=0;fillColor=none;top=0;left=0;bottom=0;right=0;align=left;spacingLeft=6;strokeColor=#0F8B8D;backgroundOutline=1;rounded=1;labelBackgroundColor=none;fontColor=#143642;linecap=square;" parent="2qvcOWGBDOMqWSujJLUs-93" vertex="1">
          <mxGeometry x="40" width="210" height="30" as="geometry">
            <mxRectangle width="210" height="30" as="alternateBounds" />
          </mxGeometry>
        </mxCell>
        <mxCell id="wVWFbtOWtliaWHri5OGp-22" value="" style="shape=partialRectangle;collapsible=0;dropTarget=0;pointerEvents=0;fillColor=none;points=[[0,0.5],[1,0.5]];portConstraint=eastwest;top=0;left=0;right=0;bottom=0;" vertex="1" parent="C-vyLk0tnHw3VtMMgP7b-13">
          <mxGeometry y="110" width="250" height="30" as="geometry" />
        </mxCell>
        <mxCell id="2qvcOWGBDOMqWSujJLUs-115" value="FK" style="shape=partialRectangle;overflow=hidden;connectable=0;fillColor=none;top=0;left=0;bottom=0;right=0;strokeColor=#0F8B8D;backgroundOutline=1;rounded=1;labelBackgroundColor=none;fontColor=#143642;linecap=square;" parent="2qvcOWGBDOMqWSujJLUs-114" vertex="1">
          <mxGeometry width="40" height="30" as="geometry">
            <mxRectangle width="40" height="30" as="alternateBounds" />
          </mxGeometry>
        </mxCell>
        <mxCell id="2qvcOWGBDOMqWSujJLUs-116" value="subject_id" style="shape=partialRectangle;overflow=hidden;connectable=0;fillColor=none;top=0;left=0;bottom=0;right=0;align=left;spacingLeft=6;strokeColor=#0F8B8D;backgroundOutline=1;rounded=1;labelBackgroundColor=none;fontColor=#143642;linecap=square;" parent="2qvcOWGBDOMqWSujJLUs-114" vertex="1">
          <mxGeometry x="40" width="210" height="30" as="geometry">
            <mxRectangle width="210" height="30" as="alternateBounds" />
          </mxGeometry>
        </mxCell>
        <mxCell id="2qvcOWGBDOMqWSujJLUs-99" value="" style="shape=partialRectangle;collapsible=0;dropTarget=0;pointerEvents=0;fillColor=none;points=[[0,0.5],[1,0.5]];portConstraint=eastwest;top=0;left=0;right=0;bottom=0;strokeColor=#0F8B8D;backgroundOutline=1;rounded=1;labelBackgroundColor=none;fontColor=#143642;linecap=square;" parent="2qvcOWGBDOMqWSujJLUs-89" vertex="1">
          <mxGeometry y="150" width="250" height="38" as="geometry" />
        </mxCell>
        <mxCell id="2qvcOWGBDOMqWSujJLUs-100" value="" style="shape=partialRectangle;overflow=hidden;connectable=0;fillColor=none;top=0;left=0;bottom=0;right=0;strokeColor=#0F8B8D;backgroundOutline=1;rounded=1;labelBackgroundColor=none;fontColor=#143642;linecap=square;" parent="2qvcOWGBDOMqWSujJLUs-99" vertex="1">
          <mxGeometry width="40" height="38" as="geometry">
            <mxRectangle width="40" height="38" as="alternateBounds" />
          </mxGeometry>
        </mxCell>
        <mxCell id="2qvcOWGBDOMqWSujJLUs-101" value="th" style="shape=partialRectangle;overflow=hidden;connectable=0;fillColor=none;top=0;left=0;bottom=0;right=0;align=left;spacingLeft=6;strokeColor=#0F8B8D;backgroundOutline=1;rounded=1;labelBackgroundColor=none;fontColor=#143642;linecap=square;" parent="2qvcOWGBDOMqWSujJLUs-99" vertex="1">
          <mxGeometry x="40" width="210" height="38" as="geometry">
            <mxRectangle width="210" height="38" as="alternateBounds" />
          </mxGeometry>
        </mxCell>
        <mxCell id="2qvcOWGBDOMqWSujJLUs-102" value="" style="shape=partialRectangle;collapsible=0;dropTarget=0;pointerEvents=0;fillColor=none;points=[[0,0.5],[1,0.5]];portConstraint=eastwest;top=0;left=0;right=0;bottom=0;strokeColor=#0F8B8D;backgroundOutline=1;rounded=1;labelBackgroundColor=none;fontColor=#143642;linecap=square;" parent="2qvcOWGBDOMqWSujJLUs-89" vertex="1">
          <mxGeometry y="188" width="250" height="38" as="geometry" />
        </mxCell>
        <mxCell id="2qvcOWGBDOMqWSujJLUs-103" value="" style="shape=partialRectangle;overflow=hidden;connectable=0;fillColor=none;top=0;left=0;bottom=0;right=0;strokeColor=#0F8B8D;backgroundOutline=1;rounded=1;labelBackgroundColor=none;fontColor=#143642;linecap=square;" parent="2qvcOWGBDOMqWSujJLUs-102" vertex="1">
          <mxGeometry width="40" height="38" as="geometry">
            <mxRectangle width="40" height="38" as="alternateBounds" />
          </mxGeometry>
        </mxCell>
        <mxCell id="2qvcOWGBDOMqWSujJLUs-104" value="pr" style="shape=partialRectangle;overflow=hidden;connectable=0;fillColor=none;top=0;left=0;bottom=0;right=0;align=left;spacingLeft=6;strokeColor=#0F8B8D;backgroundOutline=1;rounded=1;labelBackgroundColor=none;fontColor=#143642;linecap=square;" parent="2qvcOWGBDOMqWSujJLUs-102" vertex="1">
          <mxGeometry x="40" width="210" height="38" as="geometry">
            <mxRectangle width="210" height="38" as="alternateBounds" />
          </mxGeometry>
        </mxCell>
        <mxCell id="2qvcOWGBDOMqWSujJLUs-105" style="edgeStyle=orthogonalEdgeStyle;rounded=1;orthogonalLoop=1;jettySize=auto;html=1;entryDx=0;entryDy=0;startArrow=ERmany;startFill=0;endArrow=ERone;endFill=0;exitDx=0;exitDy=0;strokeColor=#A8201A;backgroundOutline=0;labelBackgroundColor=none;fontColor=default;movable=1;resizable=1;rotatable=1;deletable=1;editable=1;locked=0;connectable=1;shadow=0;snapToPoint=1;fixDash=0;comic=0;linejoin=arcs;linecap=square;flowAnimation=0;" parent="1" source="2qvcOWGBDOMqWSujJLUs-114" target="C-vyLk0tnHw3VtMMgP7b-14" edge="1">
          <mxGeometry relative="1" as="geometry">
            <mxPoint x="409" y="130" as="sourcePoint" />
          </mxGeometry>
        </mxCell>
        <mxCell id="2qvcOWGBDOMqWSujJLUs-129" value="Elective" style="shape=table;startSize=30;container=1;collapsible=1;childLayout=tableLayout;fixedRows=1;rowLines=0;fontStyle=1;align=center;resizeLast=0;strokeColor=#0F8B8D;backgroundOutline=0;rounded=1;labelBackgroundColor=none;fillColor=#FAE5C7;fontColor=#143642;movable=1;resizable=1;rotatable=1;deletable=1;editable=1;locked=0;connectable=1;shadow=0;snapToPoint=1;fixDash=0;comic=0;linejoin=arcs;linecap=square;columnLines=1;" parent="1" vertex="1">
          <mxGeometry x="-788" y="-275" width="250" height="98" as="geometry">
            <mxRectangle x="870" y="360" width="80" height="30" as="alternateBounds" />
          </mxGeometry>
        </mxCell>
        <mxCell id="wVWFbtOWtliaWHri5OGp-28" value="" style="shape=partialRectangle;collapsible=0;dropTarget=0;pointerEvents=0;fillColor=none;points=[[0,0.5],[1,0.5]];portConstraint=eastwest;top=0;left=0;right=0;bottom=0;" vertex="1" parent="C-vyLk0tnHw3VtMMgP7b-13">
          <mxGeometry y="140" width="250" height="30" as="geometry" />
        </mxCell>
        <mxCell id="2qvcOWGBDOMqWSujJLUs-131" value="PK" style="shape=partialRectangle;overflow=hidden;connectable=0;fillColor=none;top=0;left=0;bottom=0;right=0;fontStyle=1;strokeColor=#0F8B8D;backgroundOutline=1;rounded=1;labelBackgroundColor=none;fontColor=#143642;linecap=square;" parent="2qvcOWGBDOMqWSujJLUs-130" vertex="1">
          <mxGeometry width="40" height="30" as="geometry">
            <mxRectangle width="40" height="30" as="alternateBounds" />
          </mxGeometry>
        </mxCell>
        <mxCell id="2qvcOWGBDOMqWSujJLUs-132" value="elective_id" style="shape=partialRectangle;overflow=hidden;connectable=0;fillColor=none;top=0;left=0;bottom=0;right=0;align=left;spacingLeft=6;fontStyle=5;strokeColor=#0F8B8D;backgroundOutline=1;rounded=1;labelBackgroundColor=none;fontColor=#143642;linecap=square;" parent="2qvcOWGBDOMqWSujJLUs-130" vertex="1">
          <mxGeometry x="40" width="210" height="30" as="geometry">
            <mxRectangle width="210" height="30" as="alternateBounds" />
          </mxGeometry>
        </mxCell>
        <mxCell id="wVWFbtOWtliaWHri5OGp-31" value="" style="shape=partialRectangle;collapsible=0;dropTarget=0;pointerEvents=0;fillColor=none;points=[[0,0.5],[1,0.5]];portConstraint=eastwest;top=0;left=0;right=0;bottom=0;" vertex="1" parent="C-vyLk0tnHw3VtMMgP7b-13">
          <mxGeometry y="170" width="250" height="30" as="geometry" />
        </mxCell>
        <mxCell id="2qvcOWGBDOMqWSujJLUs-134" value="" style="shape=partialRectangle;overflow=hidden;connectable=0;fillColor=none;top=0;left=0;bottom=0;right=0;strokeColor=#0F8B8D;backgroundOutline=1;rounded=1;labelBackgroundColor=none;fontColor=#143642;linecap=square;" parent="2qvcOWGBDOMqWSujJLUs-133" vertex="1">
          <mxGeometry width="40" height="38" as="geometry">
            <mxRectangle width="40" height="38" as="alternateBounds" />
          </mxGeometry>
        </mxCell>
        <mxCell id="2qvcOWGBDOMqWSujJLUs-135" value="name" style="shape=partialRectangle;overflow=hidden;connectable=0;fillColor=none;top=0;left=0;bottom=0;right=0;align=left;spacingLeft=6;strokeColor=#0F8B8D;backgroundOutline=1;rounded=1;labelBackgroundColor=none;fontColor=#143642;linecap=square;" parent="2qvcOWGBDOMqWSujJLUs-133" vertex="1">
          <mxGeometry x="40" width="210" height="38" as="geometry">
            <mxRectangle width="210" height="38" as="alternateBounds" />
          </mxGeometry>
        </mxCell>
        <mxCell id="wVWFbtOWtliaWHri5OGp-61" value="Marks" style="shape=table;startSize=30;container=1;collapsible=1;childLayout=tableLayout;fixedRows=1;rowLines=0;fontStyle=1;align=center;resizeLast=1;" vertex="1" parent="1">
          <mxGeometry x="430" y="460" width="250" height="130" as="geometry" />
        </mxCell>
        <mxCell id="2qvcOWGBDOMqWSujJLUs-156" value="" style="shape=partialRectangle;collapsible=0;dropTarget=0;pointerEvents=0;fillColor=none;points=[[0,0.5],[1,0.5]];portConstraint=eastwest;top=0;left=0;right=0;bottom=1;strokeColor=#0F8B8D;backgroundOutline=1;rounded=1;labelBackgroundColor=none;fontColor=#143642;linecap=square;" parent="2qvcOWGBDOMqWSujJLUs-155" vertex="1">
          <mxGeometry y="30" width="250" height="30" as="geometry" />
        </mxCell>
        <mxCell id="2qvcOWGBDOMqWSujJLUs-157" value="PK" style="shape=partialRectangle;overflow=hidden;connectable=0;fillColor=none;top=0;left=0;bottom=0;right=0;fontStyle=1;strokeColor=#0F8B8D;backgroundOutline=1;rounded=1;labelBackgroundColor=none;fontColor=#143642;linecap=square;" parent="2qvcOWGBDOMqWSujJLUs-156" vertex="1">
          <mxGeometry width="40" height="30" as="geometry">
            <mxRectangle width="40" height="30" as="alternateBounds" />
          </mxGeometry>
        </mxCell>
        <mxCell id="2qvcOWGBDOMqWSujJLUs-158" value="classelective_id" style="shape=partialRectangle;overflow=hidden;connectable=0;fillColor=none;top=0;left=0;bottom=0;right=0;align=left;spacingLeft=6;fontStyle=5;strokeColor=#0F8B8D;backgroundOutline=1;rounded=1;labelBackgroundColor=none;fontColor=#143642;linecap=square;" parent="2qvcOWGBDOMqWSujJLUs-156" vertex="1">
          <mxGeometry x="40" width="210" height="30" as="geometry">
            <mxRectangle width="210" height="30" as="alternateBounds" />
          </mxGeometry>
        </mxCell>
        <mxCell id="2qvcOWGBDOMqWSujJLUs-159" value="" style="shape=partialRectangle;collapsible=0;dropTarget=0;pointerEvents=0;fillColor=none;points=[[0,0.5],[1,0.5]];portConstraint=eastwest;top=0;left=0;right=0;bottom=0;strokeColor=#0F8B8D;backgroundOutline=1;rounded=1;labelBackgroundColor=none;fontColor=#143642;linecap=square;" parent="2qvcOWGBDOMqWSujJLUs-155" vertex="1">
          <mxGeometry y="60" width="250" height="30" as="geometry" />
        </mxCell>
        <mxCell id="2qvcOWGBDOMqWSujJLUs-160" value="FK " style="shape=partialRectangle;overflow=hidden;connectable=0;fillColor=none;top=0;left=0;bottom=0;right=0;strokeColor=#0F8B8D;backgroundOutline=1;rounded=1;labelBackgroundColor=none;fontColor=#143642;linecap=square;" parent="2qvcOWGBDOMqWSujJLUs-159" vertex="1">
          <mxGeometry width="40" height="30" as="geometry">
            <mxRectangle width="40" height="30" as="alternateBounds" />
          </mxGeometry>
        </mxCell>
        <mxCell id="2qvcOWGBDOMqWSujJLUs-161" value="class_id" style="shape=partialRectangle;overflow=hidden;connectable=0;fillColor=none;top=0;left=0;bottom=0;right=0;align=left;spacingLeft=6;strokeColor=#0F8B8D;backgroundOutline=1;rounded=1;labelBackgroundColor=none;fontColor=#143642;linecap=square;" parent="2qvcOWGBDOMqWSujJLUs-159" vertex="1">
          <mxGeometry x="40" width="210" height="30" as="geometry">
            <mxRectangle width="210" height="30" as="alternateBounds" />
          </mxGeometry>
        </mxCell>
        <mxCell id="2qvcOWGBDOMqWSujJLUs-162" value="" style="shape=partialRectangle;collapsible=0;dropTarget=0;pointerEvents=0;fillColor=none;points=[[0,0.5],[1,0.5]];portConstraint=eastwest;top=0;left=0;right=0;bottom=0;strokeColor=#0F8B8D;backgroundOutline=1;rounded=1;labelBackgroundColor=none;fontColor=#143642;linecap=square;" parent="2qvcOWGBDOMqWSujJLUs-155" vertex="1">
          <mxGeometry y="90" width="250" height="30" as="geometry" />
        </mxCell>
        <mxCell id="2qvcOWGBDOMqWSujJLUs-163" value="FK " style="shape=partialRectangle;overflow=hidden;connectable=0;fillColor=none;top=0;left=0;bottom=0;right=0;strokeColor=#0F8B8D;backgroundOutline=1;rounded=1;labelBackgroundColor=none;fontColor=#143642;linecap=square;" parent="2qvcOWGBDOMqWSujJLUs-162" vertex="1">
          <mxGeometry width="40" height="30" as="geometry">
            <mxRectangle width="40" height="30" as="alternateBounds" />
          </mxGeometry>
        </mxCell>
        <mxCell id="2qvcOWGBDOMqWSujJLUs-164" value="elective_id" style="shape=partialRectangle;overflow=hidden;connectable=0;fillColor=none;top=0;left=0;bottom=0;right=0;align=left;spacingLeft=6;strokeColor=#0F8B8D;backgroundOutline=1;rounded=1;labelBackgroundColor=none;fontColor=#143642;linecap=square;" parent="2qvcOWGBDOMqWSujJLUs-162" vertex="1">
          <mxGeometry x="40" width="210" height="30" as="geometry">
            <mxRectangle width="210" height="30" as="alternateBounds" />
          </mxGeometry>
        </mxCell>
        <mxCell id="2qvcOWGBDOMqWSujJLUs-178" style="edgeStyle=orthogonalEdgeStyle;rounded=1;orthogonalLoop=1;jettySize=auto;html=1;exitDx=0;exitDy=0;entryDx=0;entryDy=0;startArrow=ERmany;startFill=0;endArrow=ERone;endFill=0;strokeColor=#A8201A;backgroundOutline=0;labelBackgroundColor=none;fontColor=default;movable=1;resizable=1;rotatable=1;deletable=1;editable=1;locked=0;connectable=1;shadow=0;snapToPoint=1;fixDash=0;comic=0;linejoin=arcs;linecap=square;exitX=0;exitY=0.5;" parent="1" source="2qvcOWGBDOMqWSujJLUs-166" target="C-vyLk0tnHw3VtMMgP7b-24" edge="1">
          <mxGeometry relative="1" as="geometry">
            <mxPoint x="49" y="-295" as="targetPoint" />
            <mxPoint x="139" y="385" as="sourcePoint" />
          </mxGeometry>
        </mxCell>
        <mxCell id="C-vyLk0tnHw3VtMMgP7b-23" value="Students" style="shape=table;startSize=30;container=1;collapsible=1;childLayout=tableLayout;fixedRows=1;rowLines=0;fontStyle=1;align=center;resizeLast=1;" parent="1" vertex="1">
          <mxGeometry x="30" y="110" width="250" height="220" as="geometry" />
        </mxCell>
        <mxCell id="2qvcOWGBDOMqWSujJLUs-166" value="" style="shape=partialRectangle;collapsible=0;dropTarget=0;pointerEvents=0;fillColor=none;points=[[0,0.5],[1,0.5]];portConstraint=eastwest;top=0;left=0;right=0;bottom=1;strokeColor=#0F8B8D;backgroundOutline=1;rounded=1;labelBackgroundColor=none;fontColor=#143642;linecap=square;" parent="2qvcOWGBDOMqWSujJLUs-165" vertex="1">
          <mxGeometry y="30" width="250" height="30" as="geometry" />
        </mxCell>
        <mxCell id="2qvcOWGBDOMqWSujJLUs-167" value="PK" style="shape=partialRectangle;overflow=hidden;connectable=0;fillColor=none;top=0;left=0;bottom=0;right=0;fontStyle=1;strokeColor=#0F8B8D;backgroundOutline=1;rounded=1;labelBackgroundColor=none;fontColor=#143642;linecap=square;" parent="2qvcOWGBDOMqWSujJLUs-166" vertex="1">
          <mxGeometry width="40" height="30" as="geometry">
            <mxRectangle width="40" height="30" as="alternateBounds" />
          </mxGeometry>
        </mxCell>
        <mxCell id="2qvcOWGBDOMqWSujJLUs-168" value="studentelective_id" style="shape=partialRectangle;overflow=hidden;connectable=0;fillColor=none;top=0;left=0;bottom=0;right=0;align=left;spacingLeft=6;fontStyle=5;strokeColor=#0F8B8D;backgroundOutline=1;rounded=1;labelBackgroundColor=none;fontColor=#143642;linecap=square;" parent="2qvcOWGBDOMqWSujJLUs-166" vertex="1">
          <mxGeometry x="40" width="210" height="30" as="geometry">
            <mxRectangle width="210" height="30" as="alternateBounds" />
          </mxGeometry>
        </mxCell>
        <mxCell id="2qvcOWGBDOMqWSujJLUs-169" value="" style="shape=partialRectangle;collapsible=0;dropTarget=0;pointerEvents=0;fillColor=none;points=[[0,0.5],[1,0.5]];portConstraint=eastwest;top=0;left=0;right=0;bottom=0;strokeColor=#0F8B8D;backgroundOutline=1;rounded=1;labelBackgroundColor=none;fontColor=#143642;linecap=square;" parent="2qvcOWGBDOMqWSujJLUs-165" vertex="1">
          <mxGeometry y="60" width="250" height="30" as="geometry" />
        </mxCell>
        <mxCell id="2qvcOWGBDOMqWSujJLUs-170" value="FK " style="shape=partialRectangle;overflow=hidden;connectable=0;fillColor=none;top=0;left=0;bottom=0;right=0;strokeColor=#0F8B8D;backgroundOutline=1;rounded=1;labelBackgroundColor=none;fontColor=#143642;linecap=square;" parent="2qvcOWGBDOMqWSujJLUs-169" vertex="1">
          <mxGeometry width="40" height="30" as="geometry">
            <mxRectangle width="40" height="30" as="alternateBounds" />
          </mxGeometry>
        </mxCell>
        <mxCell id="2qvcOWGBDOMqWSujJLUs-171" value="student_id" style="shape=partialRectangle;overflow=hidden;connectable=0;fillColor=none;top=0;left=0;bottom=0;right=0;align=left;spacingLeft=6;strokeColor=#0F8B8D;backgroundOutline=1;rounded=1;labelBackgroundColor=none;fontColor=#143642;linecap=square;" parent="2qvcOWGBDOMqWSujJLUs-169" vertex="1">
          <mxGeometry x="40" width="210" height="30" as="geometry">
            <mxRectangle width="210" height="30" as="alternateBounds" />
          </mxGeometry>
        </mxCell>
        <mxCell id="2qvcOWGBDOMqWSujJLUs-172" value="" style="shape=partialRectangle;collapsible=0;dropTarget=0;pointerEvents=0;fillColor=none;points=[[0,0.5],[1,0.5]];portConstraint=eastwest;top=0;left=0;right=0;bottom=0;strokeColor=#0F8B8D;backgroundOutline=1;rounded=1;labelBackgroundColor=none;fontColor=#143642;linecap=square;" parent="2qvcOWGBDOMqWSujJLUs-165" vertex="1">
          <mxGeometry y="90" width="250" height="30" as="geometry" />
        </mxCell>
        <mxCell id="2qvcOWGBDOMqWSujJLUs-173" value="FK " style="shape=partialRectangle;overflow=hidden;connectable=0;fillColor=none;top=0;left=0;bottom=0;right=0;strokeColor=#0F8B8D;backgroundOutline=1;rounded=1;labelBackgroundColor=none;fontColor=#143642;linecap=square;" parent="2qvcOWGBDOMqWSujJLUs-172" vertex="1">
          <mxGeometry width="40" height="30" as="geometry">
            <mxRectangle width="40" height="30" as="alternateBounds" />
          </mxGeometry>
        </mxCell>
        <mxCell id="2qvcOWGBDOMqWSujJLUs-174" value="elective_id" style="shape=partialRectangle;overflow=hidden;connectable=0;fillColor=none;top=0;left=0;bottom=0;right=0;align=left;spacingLeft=6;strokeColor=#0F8B8D;backgroundOutline=1;rounded=1;labelBackgroundColor=none;fontColor=#143642;linecap=square;" parent="2qvcOWGBDOMqWSujJLUs-172" vertex="1">
          <mxGeometry x="40" width="210" height="30" as="geometry">
            <mxRectangle width="210" height="30" as="alternateBounds" />
          </mxGeometry>
        </mxCell>
        <mxCell id="2qvcOWGBDOMqWSujJLUs-175" value="" style="shape=partialRectangle;collapsible=0;dropTarget=0;pointerEvents=0;fillColor=none;points=[[0,0.5],[1,0.5]];portConstraint=eastwest;top=0;left=0;right=0;bottom=0;strokeColor=#0F8B8D;backgroundOutline=1;rounded=1;labelBackgroundColor=none;fontColor=#143642;linecap=square;" parent="2qvcOWGBDOMqWSujJLUs-165" vertex="1">
          <mxGeometry y="120" width="250" height="30" as="geometry" />
        </mxCell>
        <mxCell id="2qvcOWGBDOMqWSujJLUs-176" value="FK " style="shape=partialRectangle;overflow=hidden;connectable=0;fillColor=none;top=0;left=0;bottom=0;right=0;strokeColor=#0F8B8D;backgroundOutline=1;rounded=1;labelBackgroundColor=none;fontColor=#143642;linecap=square;" parent="2qvcOWGBDOMqWSujJLUs-175" vertex="1">
          <mxGeometry width="40" height="30" as="geometry">
            <mxRectangle width="40" height="30" as="alternateBounds" />
          </mxGeometry>
        </mxCell>
        <mxCell id="2qvcOWGBDOMqWSujJLUs-177" value="subject_id" style="shape=partialRectangle;overflow=hidden;connectable=0;fillColor=none;top=0;left=0;bottom=0;right=0;align=left;spacingLeft=6;strokeColor=#0F8B8D;backgroundOutline=1;rounded=1;labelBackgroundColor=none;fontColor=#143642;linecap=square;" parent="2qvcOWGBDOMqWSujJLUs-175" vertex="1">
          <mxGeometry x="40" width="210" height="30" as="geometry">
            <mxRectangle width="210" height="30" as="alternateBounds" />
          </mxGeometry>
        </mxCell>
        <mxCell id="2qvcOWGBDOMqWSujJLUs-180" style="edgeStyle=orthogonalEdgeStyle;rounded=1;orthogonalLoop=1;jettySize=auto;html=1;exitDx=0;exitDy=0;entryDx=0;entryDy=0;startArrow=ERmany;startFill=0;endArrow=ERone;endFill=0;elbow=vertical;curved=0;strokeColor=#A8201A;backgroundOutline=0;labelBackgroundColor=none;fontColor=default;movable=1;resizable=1;rotatable=1;deletable=1;editable=1;locked=0;connectable=1;shadow=0;snapToPoint=1;fixDash=0;comic=0;linejoin=arcs;linecap=square;" parent="1" source="2qvcOWGBDOMqWSujJLUs-172" target="2qvcOWGBDOMqWSujJLUs-130" edge="1">
          <mxGeometry relative="1" as="geometry" />
        </mxCell>
        <mxCell id="2qvcOWGBDOMqWSujJLUs-181" style="edgeStyle=orthogonalEdgeStyle;rounded=1;orthogonalLoop=1;jettySize=auto;html=1;entryDx=0;entryDy=0;startArrow=ERmany;startFill=0;endArrow=ERone;endFill=0;strokeColor=#A8201A;backgroundOutline=0;labelBackgroundColor=none;fontColor=default;movable=1;resizable=1;rotatable=1;deletable=1;editable=1;locked=0;connectable=1;shadow=0;snapToPoint=1;fixDash=0;comic=0;linejoin=arcs;linecap=square;" parent="1" source="2qvcOWGBDOMqWSujJLUs-175" target="C-vyLk0tnHw3VtMMgP7b-14" edge="1">
          <mxGeometry relative="1" as="geometry" />
        </mxCell>
        <mxCell id="2qvcOWGBDOMqWSujJLUs-184" style="edgeStyle=orthogonalEdgeStyle;rounded=1;orthogonalLoop=1;jettySize=auto;html=1;entryDx=0;entryDy=0;strokeColor=#A8201A;backgroundOutline=0;labelBackgroundColor=none;fontColor=default;endArrow=ERone;endFill=0;startArrow=ERmany;startFill=0;movable=1;resizable=1;rotatable=1;deletable=1;editable=1;locked=0;connectable=1;shadow=0;snapToPoint=1;fixDash=0;comic=0;linejoin=arcs;linecap=square;exitX=0;exitY=0.5;exitDx=0;exitDy=0;" parent="1" source="2qvcOWGBDOMqWSujJLUs-162" target="2qvcOWGBDOMqWSujJLUs-130" edge="1">
          <mxGeometry relative="1" as="geometry" />
        </mxCell>
        <mxCell id="2qvcOWGBDOMqWSujJLUs-185" style="edgeStyle=orthogonalEdgeStyle;rounded=1;orthogonalLoop=1;jettySize=auto;html=1;entryDx=0;entryDy=0;startArrow=ERmany;startFill=0;endArrow=ERone;endFill=0;strokeColor=#A8201A;backgroundOutline=0;labelBackgroundColor=none;fontColor=default;movable=1;resizable=1;rotatable=1;deletable=1;editable=1;locked=0;connectable=1;shadow=0;snapToPoint=1;fixDash=0;comic=0;linejoin=arcs;linecap=square;" parent="1" source="0IbINIZYWQKPSXSh-9nA-121" target="2qvcOWGBDOMqWSujJLUs-130" edge="1">
          <mxGeometry relative="1" as="geometry" />
        </mxCell>
        <mxCell id="2qvcOWGBDOMqWSujJLUs-186" style="edgeStyle=orthogonalEdgeStyle;rounded=1;orthogonalLoop=1;jettySize=auto;html=1;exitDx=0;exitDy=0;entryDx=0;entryDy=0;startArrow=ERmany;startFill=0;endArrow=ERone;endFill=0;strokeColor=#A8201A;backgroundOutline=0;curved=0;labelBackgroundColor=none;fontColor=default;movable=1;resizable=1;rotatable=1;deletable=1;editable=1;locked=0;connectable=1;shadow=0;snapToPoint=1;fixDash=0;comic=0;linejoin=arcs;linecap=square;exitX=1.009;exitY=0.283;exitPerimeter=0;" parent="1" source="0IbINIZYWQKPSXSh-9nA-124" target="C-vyLk0tnHw3VtMMgP7b-14" edge="1">
          <mxGeometry relative="1" as="geometry" />
        </mxCell>
        <mxCell id="C-vyLk0tnHw3VtMMgP7b-13" value="Subjects" style="shape=table;startSize=30;container=1;collapsible=1;childLayout=tableLayout;fixedRows=1;rowLines=0;fontStyle=1;align=center;resizeLast=0;strokeColor=#0F8B8D;backgroundOutline=0;rounded=1;labelBackgroundColor=none;fillColor=#FAE5C7;fontColor=#143642;movable=1;resizable=1;rotatable=1;deletable=1;editable=1;locked=0;connectable=1;shadow=0;snapToPoint=1;fixDash=0;comic=0;linejoin=arcs;linecap=square;" parent="1" vertex="1">
          <mxGeometry x="62" y="-517" width="290" height="272" as="geometry">
            <mxRectangle x="460" y="-70" width="90" height="30" as="alternateBounds" />
          </mxGeometry>
        </mxCell>
        <mxCell id="C-vyLk0tnHw3VtMMgP7b-14" value="" style="shape=partialRectangle;collapsible=0;dropTarget=0;pointerEvents=0;fillColor=none;points=[[0,0.5],[1,0.5]];portConstraint=eastwest;top=0;left=0;right=0;bottom=1;strokeColor=#0F8B8D;backgroundOutline=1;rounded=1;labelBackgroundColor=none;fontColor=#143642;movable=1;resizable=1;rotatable=1;deletable=1;editable=1;locked=0;connectable=1;linecap=square;" parent="C-vyLk0tnHw3VtMMgP7b-13" vertex="1">
          <mxGeometry y="30" width="290" height="30" as="geometry" />
        </mxCell>
        <mxCell id="C-vyLk0tnHw3VtMMgP7b-15" value="PK" style="shape=partialRectangle;overflow=hidden;connectable=1;fillColor=none;top=0;left=0;bottom=0;right=0;fontStyle=1;strokeColor=#0F8B8D;backgroundOutline=1;rounded=1;labelBackgroundColor=none;fontColor=#143642;movable=1;resizable=1;rotatable=1;deletable=1;editable=1;locked=0;linecap=square;" parent="C-vyLk0tnHw3VtMMgP7b-14" vertex="1">
          <mxGeometry width="40" height="30" as="geometry">
            <mxRectangle width="40" height="30" as="alternateBounds" />
          </mxGeometry>
        </mxCell>
        <mxCell id="C-vyLk0tnHw3VtMMgP7b-16" value="subject_id" style="shape=partialRectangle;overflow=hidden;connectable=1;fillColor=none;top=0;left=0;bottom=0;right=0;align=left;spacingLeft=6;fontStyle=5;strokeColor=#0F8B8D;backgroundOutline=1;rounded=1;labelBackgroundColor=none;fontColor=#143642;movable=1;resizable=1;rotatable=1;deletable=1;editable=1;locked=0;linecap=square;" parent="C-vyLk0tnHw3VtMMgP7b-14" vertex="1">
          <mxGeometry x="40" width="250" height="30" as="geometry">
            <mxRectangle width="250" height="30" as="alternateBounds" />
          </mxGeometry>
        </mxCell>
        <mxCell id="wVWFbtOWtliaWHri5OGp-31" value="" style="shape=partialRectangle;collapsible=0;dropTarget=0;pointerEvents=0;fillColor=none;points=[[0,0.5],[1,0.5]];portConstraint=eastwest;top=0;left=0;right=0;bottom=0;strokeColor=#0F8B8D;backgroundOutline=1;rounded=1;labelBackgroundColor=none;fontColor=#143642;movable=1;resizable=1;rotatable=1;deletable=1;editable=1;locked=0;connectable=1;linecap=square;" parent="C-vyLk0tnHw3VtMMgP7b-13" vertex="1">
          <mxGeometry y="60" width="290" height="30" as="geometry" />
        </mxCell>
        <mxCell id="wVWFbtOWtliaWHri5OGp-32" value="FK " style="shape=partialRectangle;overflow=hidden;connectable=1;fillColor=none;top=0;left=0;bottom=0;right=0;strokeColor=#0F8B8D;backgroundOutline=1;rounded=1;labelBackgroundColor=none;fontColor=#143642;movable=1;resizable=1;rotatable=1;deletable=1;editable=1;locked=0;linecap=square;" parent="wVWFbtOWtliaWHri5OGp-31" vertex="1">
          <mxGeometry width="40" height="30" as="geometry">
            <mxRectangle width="40" height="30" as="alternateBounds" />
          </mxGeometry>
        </mxCell>
        <mxCell id="wVWFbtOWtliaWHri5OGp-33" value="teacher" style="shape=partialRectangle;overflow=hidden;connectable=1;fillColor=none;top=0;left=0;bottom=0;right=0;align=left;spacingLeft=6;strokeColor=#0F8B8D;backgroundOutline=1;rounded=1;labelBackgroundColor=none;fontColor=#143642;movable=1;resizable=1;rotatable=1;deletable=1;editable=1;locked=0;linecap=square;" parent="wVWFbtOWtliaWHri5OGp-31" vertex="1">
          <mxGeometry x="40" width="250" height="30" as="geometry">
            <mxRectangle width="250" height="30" as="alternateBounds" />
          </mxGeometry>
        </mxCell>
        <mxCell id="wVWFbtOWtliaWHri5OGp-22" value="" style="shape=partialRectangle;collapsible=0;dropTarget=0;pointerEvents=0;fillColor=none;points=[[0,0.5],[1,0.5]];portConstraint=eastwest;top=0;left=0;right=0;bottom=0;strokeColor=#0F8B8D;backgroundOutline=1;rounded=1;labelBackgroundColor=none;fontColor=#143642;movable=1;resizable=1;rotatable=1;deletable=1;editable=1;locked=0;connectable=1;linecap=square;" parent="C-vyLk0tnHw3VtMMgP7b-13" vertex="1">
          <mxGeometry y="90" width="290" height="30" as="geometry" />
        </mxCell>
        <mxCell id="wVWFbtOWtliaWHri5OGp-23" value="FK" style="shape=partialRectangle;overflow=hidden;connectable=1;fillColor=none;top=0;left=0;bottom=0;right=0;strokeColor=#0F8B8D;backgroundOutline=1;rounded=1;labelBackgroundColor=none;fontColor=#143642;movable=1;resizable=1;rotatable=1;deletable=1;editable=1;locked=0;linecap=square;" parent="wVWFbtOWtliaWHri5OGp-22" vertex="1">
          <mxGeometry width="40" height="30" as="geometry">
            <mxRectangle width="40" height="30" as="alternateBounds" />
          </mxGeometry>
        </mxCell>
        <mxCell id="wVWFbtOWtliaWHri5OGp-24" value="marks" style="shape=partialRectangle;overflow=hidden;connectable=1;fillColor=none;top=0;left=0;bottom=0;right=0;align=left;spacingLeft=6;strokeColor=#0F8B8D;backgroundOutline=1;rounded=1;labelBackgroundColor=none;fontColor=#143642;movable=1;resizable=1;rotatable=1;deletable=1;editable=1;locked=0;linecap=square;" parent="wVWFbtOWtliaWHri5OGp-22" vertex="1">
          <mxGeometry x="40" width="250" height="30" as="geometry">
            <mxRectangle width="250" height="30" as="alternateBounds" />
          </mxGeometry>
        </mxCell>
        <mxCell id="C-vyLk0tnHw3VtMMgP7b-17" value="" style="shape=partialRectangle;collapsible=0;dropTarget=0;pointerEvents=0;fillColor=none;points=[[0,0.5],[1,0.5]];portConstraint=eastwest;top=0;left=0;right=0;bottom=0;strokeColor=#0F8B8D;backgroundOutline=1;rounded=1;labelBackgroundColor=none;fontColor=#143642;movable=1;resizable=1;rotatable=1;deletable=1;editable=1;locked=0;connectable=1;linecap=square;" parent="C-vyLk0tnHw3VtMMgP7b-13" vertex="1">
          <mxGeometry y="120" width="290" height="38" as="geometry" />
        </mxCell>
        <mxCell id="C-vyLk0tnHw3VtMMgP7b-18" value="" style="shape=partialRectangle;overflow=hidden;connectable=1;fillColor=none;top=0;left=0;bottom=0;right=0;strokeColor=#0F8B8D;backgroundOutline=1;rounded=1;labelBackgroundColor=none;fontColor=#143642;movable=1;resizable=1;rotatable=1;deletable=1;editable=1;locked=0;linecap=square;" parent="C-vyLk0tnHw3VtMMgP7b-17" vertex="1">
          <mxGeometry width="40" height="38" as="geometry">
            <mxRectangle width="40" height="38" as="alternateBounds" />
          </mxGeometry>
        </mxCell>
        <mxCell id="C-vyLk0tnHw3VtMMgP7b-19" value="subject_code" style="shape=partialRectangle;overflow=hidden;connectable=1;fillColor=none;top=0;left=0;bottom=0;right=0;align=left;spacingLeft=6;strokeColor=#0F8B8D;backgroundOutline=1;rounded=1;labelBackgroundColor=none;fontColor=#143642;movable=1;resizable=1;rotatable=1;deletable=1;editable=1;locked=0;linecap=square;" parent="C-vyLk0tnHw3VtMMgP7b-17" vertex="1">
          <mxGeometry x="40" width="250" height="38" as="geometry">
            <mxRectangle width="250" height="38" as="alternateBounds" />
          </mxGeometry>
        </mxCell>
        <mxCell id="wVWFbtOWtliaWHri5OGp-19" value="" style="shape=partialRectangle;collapsible=0;dropTarget=0;pointerEvents=0;fillColor=none;points=[[0,0.5],[1,0.5]];portConstraint=eastwest;top=0;left=0;right=0;bottom=0;strokeColor=#0F8B8D;backgroundOutline=1;rounded=1;labelBackgroundColor=none;fontColor=#143642;movable=1;resizable=1;rotatable=1;deletable=1;editable=1;locked=0;connectable=1;linecap=square;" parent="C-vyLk0tnHw3VtMMgP7b-13" vertex="1">
          <mxGeometry y="158" width="290" height="38" as="geometry" />
        </mxCell>
        <mxCell id="wVWFbtOWtliaWHri5OGp-20" value="" style="shape=partialRectangle;overflow=hidden;connectable=1;fillColor=none;top=0;left=0;bottom=0;right=0;strokeColor=#0F8B8D;backgroundOutline=1;rounded=1;labelBackgroundColor=none;fontColor=#143642;movable=1;resizable=1;rotatable=1;deletable=1;editable=1;locked=0;linecap=square;" parent="wVWFbtOWtliaWHri5OGp-19" vertex="1">
          <mxGeometry width="40" height="38" as="geometry">
            <mxRectangle width="40" height="38" as="alternateBounds" />
          </mxGeometry>
        </mxCell>
        <mxCell id="wVWFbtOWtliaWHri5OGp-21" value="subject_name " style="shape=partialRectangle;overflow=hidden;connectable=1;fillColor=none;top=0;left=0;bottom=0;right=0;align=left;spacingLeft=6;strokeColor=#0F8B8D;backgroundOutline=1;rounded=1;labelBackgroundColor=none;fontColor=#143642;movable=1;resizable=1;rotatable=1;deletable=1;editable=1;locked=0;linecap=square;" parent="wVWFbtOWtliaWHri5OGp-19" vertex="1">
          <mxGeometry x="40" width="250" height="38" as="geometry">
            <mxRectangle width="250" height="38" as="alternateBounds" />
          </mxGeometry>
        </mxCell>
        <mxCell id="wVWFbtOWtliaWHri5OGp-28" value="" style="shape=partialRectangle;collapsible=0;dropTarget=0;pointerEvents=0;fillColor=none;points=[[0,0.5],[1,0.5]];portConstraint=eastwest;top=0;left=0;right=0;bottom=0;strokeColor=#0F8B8D;backgroundOutline=1;rounded=1;labelBackgroundColor=none;fontColor=#143642;movable=1;resizable=1;rotatable=1;deletable=1;editable=1;locked=0;connectable=1;linecap=square;" parent="C-vyLk0tnHw3VtMMgP7b-13" vertex="1">
          <mxGeometry y="196" width="290" height="38" as="geometry" />
        </mxCell>
        <mxCell id="wVWFbtOWtliaWHri5OGp-14" value="FK" style="shape=partialRectangle;overflow=hidden;connectable=0;fillColor=none;top=0;left=0;bottom=0;right=0;" vertex="1" parent="wVWFbtOWtliaWHri5OGp-13">
          <mxGeometry width="30" height="30" as="geometry">
            <mxRectangle width="30" height="30" as="alternateBounds" />
          </mxGeometry>
        </mxCell>
        <mxCell id="wVWFbtOWtliaWHri5OGp-15" value="student_class" style="shape=partialRectangle;overflow=hidden;connectable=0;fillColor=none;top=0;left=0;bottom=0;right=0;align=left;spacingLeft=6;" vertex="1" parent="wVWFbtOWtliaWHri5OGp-13">
          <mxGeometry x="30" width="220" height="30" as="geometry">
            <mxRectangle width="220" height="30" as="alternateBounds" />
          </mxGeometry>
        </mxCell>
        <mxCell id="2qvcOWGBDOMqWSujJLUs-117" value="" style="shape=partialRectangle;collapsible=0;dropTarget=0;pointerEvents=0;fillColor=none;points=[[0,0.5],[1,0.5]];portConstraint=eastwest;top=0;left=0;right=0;bottom=0;strokeColor=#0F8B8D;backgroundOutline=1;rounded=1;labelBackgroundColor=none;fontColor=#143642;movable=1;resizable=1;rotatable=1;deletable=1;editable=1;locked=0;connectable=1;linecap=square;" parent="C-vyLk0tnHw3VtMMgP7b-13" vertex="1">
          <mxGeometry y="234" width="290" height="38" as="geometry" />
        </mxCell>
        <mxCell id="2qvcOWGBDOMqWSujJLUs-118" value="" style="shape=partialRectangle;overflow=hidden;connectable=1;fillColor=none;top=0;left=0;bottom=0;right=0;strokeColor=#0F8B8D;backgroundOutline=1;rounded=1;labelBackgroundColor=none;fontColor=#143642;movable=1;resizable=1;rotatable=1;deletable=1;editable=1;locked=0;linecap=square;" parent="2qvcOWGBDOMqWSujJLUs-117" vertex="1">
          <mxGeometry width="40" height="38" as="geometry">
            <mxRectangle width="40" height="38" as="alternateBounds" />
          </mxGeometry>
        </mxCell>
        <mxCell id="2qvcOWGBDOMqWSujJLUs-119" value="is_elective " style="shape=partialRectangle;overflow=hidden;connectable=1;fillColor=none;top=0;left=0;bottom=0;right=0;align=left;spacingLeft=6;strokeColor=#0F8B8D;backgroundOutline=1;rounded=1;labelBackgroundColor=none;fontColor=#143642;movable=1;resizable=1;rotatable=1;deletable=1;editable=1;locked=0;linecap=square;" parent="2qvcOWGBDOMqWSujJLUs-117" vertex="1">
          <mxGeometry x="40" width="250" height="38" as="geometry">
            <mxRectangle width="250" height="38" as="alternateBounds" />
          </mxGeometry>
        </mxCell>
        <mxCell id="wVWFbtOWtliaWHri5OGp-41" value="Teachers  " style="shape=table;startSize=30;container=1;collapsible=1;childLayout=tableLayout;fixedRows=1;rowLines=0;fontStyle=1;align=center;resizeLast=1;" vertex="1" parent="1">
          <mxGeometry x="390" y="250" width="250" height="130" as="geometry" />
        </mxCell>
        <mxCell id="wVWFbtOWtliaWHri5OGp-42" value="" style="shape=partialRectangle;collapsible=0;dropTarget=0;pointerEvents=0;fillColor=none;points=[[0,0.5],[1,0.5]];portConstraint=eastwest;top=0;left=0;right=0;bottom=1;" vertex="1" parent="wVWFbtOWtliaWHri5OGp-41">
          <mxGeometry y="30" width="250" height="30" as="geometry" />
        </mxCell>
        <mxCell id="wVWFbtOWtliaWHri5OGp-43" value="PK" style="shape=partialRectangle;overflow=hidden;connectable=0;fillColor=none;top=0;left=0;bottom=0;right=0;fontStyle=1;" vertex="1" parent="wVWFbtOWtliaWHri5OGp-42">
          <mxGeometry width="30" height="30" as="geometry">
            <mxRectangle width="30" height="30" as="alternateBounds" />
          </mxGeometry>
        </mxCell>
        <mxCell id="wVWFbtOWtliaWHri5OGp-44" value="teacher_id " style="shape=partialRectangle;overflow=hidden;connectable=0;fillColor=none;top=0;left=0;bottom=0;right=0;align=left;spacingLeft=6;fontStyle=5;" vertex="1" parent="wVWFbtOWtliaWHri5OGp-42">
          <mxGeometry x="30" width="220" height="30" as="geometry">
            <mxRectangle width="220" height="30" as="alternateBounds" />
          </mxGeometry>
        </mxCell>
        <mxCell id="wVWFbtOWtliaWHri5OGp-45" value="" style="shape=partialRectangle;collapsible=0;dropTarget=0;pointerEvents=0;fillColor=none;points=[[0,0.5],[1,0.5]];portConstraint=eastwest;top=0;left=0;right=0;bottom=0;" vertex="1" parent="wVWFbtOWtliaWHri5OGp-41">
          <mxGeometry y="60" width="250" height="30" as="geometry" />
        </mxCell>
        <mxCell id="wVWFbtOWtliaWHri5OGp-46" value="" style="shape=partialRectangle;overflow=hidden;connectable=0;fillColor=none;top=0;left=0;bottom=0;right=0;" vertex="1" parent="wVWFbtOWtliaWHri5OGp-45">
          <mxGeometry width="30" height="30" as="geometry">
            <mxRectangle width="30" height="30" as="alternateBounds" />
          </mxGeometry>
        </mxCell>
        <mxCell id="wVWFbtOWtliaWHri5OGp-47" value="first_name" style="shape=partialRectangle;overflow=hidden;connectable=0;fillColor=none;top=0;left=0;bottom=0;right=0;align=left;spacingLeft=6;" vertex="1" parent="wVWFbtOWtliaWHri5OGp-45">
          <mxGeometry x="30" width="220" height="30" as="geometry">
            <mxRectangle width="220" height="30" as="alternateBounds" />
          </mxGeometry>
        </mxCell>
        <mxCell id="wVWFbtOWtliaWHri5OGp-48" value="" style="shape=partialRectangle;collapsible=0;dropTarget=0;pointerEvents=0;fillColor=none;points=[[0,0.5],[1,0.5]];portConstraint=eastwest;top=0;left=0;right=0;bottom=0;" vertex="1" parent="wVWFbtOWtliaWHri5OGp-41">
          <mxGeometry y="90" width="250" height="30" as="geometry" />
        </mxCell>
        <mxCell id="wVWFbtOWtliaWHri5OGp-49" value="" style="shape=partialRectangle;overflow=hidden;connectable=0;fillColor=none;top=0;left=0;bottom=0;right=0;" vertex="1" parent="wVWFbtOWtliaWHri5OGp-48">
          <mxGeometry width="30" height="30" as="geometry">
            <mxRectangle width="30" height="30" as="alternateBounds" />
          </mxGeometry>
        </mxCell>
        <mxCell id="wVWFbtOWtliaWHri5OGp-50" value="last_name" style="shape=partialRectangle;overflow=hidden;connectable=0;fillColor=none;top=0;left=0;bottom=0;right=0;align=left;spacingLeft=6;" vertex="1" parent="wVWFbtOWtliaWHri5OGp-48">
          <mxGeometry x="30" width="220" height="30" as="geometry">
            <mxRectangle width="220" height="30" as="alternateBounds" />
          </mxGeometry>
        </mxCell>
        <mxCell id="wVWFbtOWtliaWHri5OGp-60" value="" style="edgeStyle=orthogonalEdgeStyle;rounded=0;orthogonalLoop=1;jettySize=auto;html=1;startArrow=ERmany;startFill=0;endArrow=ERone;endFill=0;" edge="1" parent="1" source="wVWFbtOWtliaWHri5OGp-31" target="wVWFbtOWtliaWHri5OGp-45">
          <mxGeometry relative="1" as="geometry" />
        </mxCell>
        <mxCell id="wVWFbtOWtliaWHri5OGp-89" style="edgeStyle=orthogonalEdgeStyle;rounded=0;orthogonalLoop=1;jettySize=auto;html=1;exitX=1;exitY=0.5;exitDx=0;exitDy=0;entryX=0;entryY=0.5;entryDx=0;entryDy=0;endArrow=ERoneToMany;endFill=0;startArrow=ERone;startFill=0;" edge="1" parent="1" source="wVWFbtOWtliaWHri5OGp-62" target="wVWFbtOWtliaWHri5OGp-22">
          <mxGeometry relative="1" as="geometry" />
        </mxCell>
        <mxCell id="wVWFbtOWtliaWHri5OGp-90" style="rounded=0;orthogonalLoop=1;jettySize=auto;html=1;entryX=0;entryY=0.5;entryDx=0;entryDy=0;exitX=0;exitY=0.5;exitDx=0;exitDy=0;edgeStyle=orthogonalEdgeStyle;startArrow=ERmany;startFill=0;endArrow=ERone;endFill=0;" edge="1" parent="1" source="wVWFbtOWtliaWHri5OGp-13" target="wVWFbtOWtliaWHri5OGp-92">
          <mxGeometry relative="1" as="geometry">
            <mxPoint x="100" y="490" as="targetPoint" />
          </mxGeometry>
        </mxCell>
        <mxCell id="wVWFbtOWtliaWHri5OGp-91" value="Class" style="shape=table;startSize=30;container=1;collapsible=1;childLayout=tableLayout;fixedRows=1;rowLines=0;fontStyle=1;align=center;resizeLast=1;" vertex="1" parent="1">
          <mxGeometry x="100" y="450" width="250" height="160" as="geometry" />
        </mxCell>
        <mxCell id="wVWFbtOWtliaWHri5OGp-92" value="" style="shape=partialRectangle;collapsible=0;dropTarget=0;pointerEvents=0;fillColor=none;points=[[0,0.5],[1,0.5]];portConstraint=eastwest;top=0;left=0;right=0;bottom=1;" vertex="1" parent="wVWFbtOWtliaWHri5OGp-91">
          <mxGeometry y="30" width="250" height="30" as="geometry" />
        </mxCell>
        <mxCell id="wVWFbtOWtliaWHri5OGp-93" value="PK" style="shape=partialRectangle;overflow=hidden;connectable=0;fillColor=none;top=0;left=0;bottom=0;right=0;fontStyle=1;" vertex="1" parent="wVWFbtOWtliaWHri5OGp-92">
          <mxGeometry width="30" height="30" as="geometry">
            <mxRectangle width="30" height="30" as="alternateBounds" />
          </mxGeometry>
        </mxCell>
        <mxCell id="wVWFbtOWtliaWHri5OGp-94" value="class_id" style="shape=partialRectangle;overflow=hidden;connectable=0;fillColor=none;top=0;left=0;bottom=0;right=0;align=left;spacingLeft=6;fontStyle=5;" vertex="1" parent="wVWFbtOWtliaWHri5OGp-92">
          <mxGeometry x="30" width="220" height="30" as="geometry">
            <mxRectangle width="220" height="30" as="alternateBounds" />
          </mxGeometry>
        </mxCell>
        <mxCell id="wVWFbtOWtliaWHri5OGp-95" value="" style="shape=partialRectangle;collapsible=0;dropTarget=0;pointerEvents=0;fillColor=none;points=[[0,0.5],[1,0.5]];portConstraint=eastwest;top=0;left=0;right=0;bottom=0;" vertex="1" parent="wVWFbtOWtliaWHri5OGp-91">
          <mxGeometry y="60" width="250" height="30" as="geometry" />
        </mxCell>
        <mxCell id="wVWFbtOWtliaWHri5OGp-96" value="" style="shape=partialRectangle;overflow=hidden;connectable=0;fillColor=none;top=0;left=0;bottom=0;right=0;" vertex="1" parent="wVWFbtOWtliaWHri5OGp-95">
          <mxGeometry width="30" height="30" as="geometry">
            <mxRectangle width="30" height="30" as="alternateBounds" />
          </mxGeometry>
        </mxCell>
        <mxCell id="wVWFbtOWtliaWHri5OGp-97" value="graduatin_year   " style="shape=partialRectangle;overflow=hidden;connectable=0;fillColor=none;top=0;left=0;bottom=0;right=0;align=left;spacingLeft=6;" vertex="1" parent="wVWFbtOWtliaWHri5OGp-95">
          <mxGeometry x="30" width="220" height="30" as="geometry">
            <mxRectangle width="220" height="30" as="alternateBounds" />
          </mxGeometry>
        </mxCell>
        <mxCell id="wVWFbtOWtliaWHri5OGp-98" value="" style="shape=partialRectangle;collapsible=0;dropTarget=0;pointerEvents=0;fillColor=none;points=[[0,0.5],[1,0.5]];portConstraint=eastwest;top=0;left=0;right=0;bottom=0;" vertex="1" parent="wVWFbtOWtliaWHri5OGp-91">
          <mxGeometry y="90" width="250" height="30" as="geometry" />
        </mxCell>
        <mxCell id="wVWFbtOWtliaWHri5OGp-99" value="" style="shape=partialRectangle;overflow=hidden;connectable=0;fillColor=none;top=0;left=0;bottom=0;right=0;" vertex="1" parent="wVWFbtOWtliaWHri5OGp-98">
          <mxGeometry width="30" height="30" as="geometry">
            <mxRectangle width="30" height="30" as="alternateBounds" />
          </mxGeometry>
        </mxCell>
        <mxCell id="wVWFbtOWtliaWHri5OGp-100" value="class_teacher" style="shape=partialRectangle;overflow=hidden;connectable=0;fillColor=none;top=0;left=0;bottom=0;right=0;align=left;spacingLeft=6;" vertex="1" parent="wVWFbtOWtliaWHri5OGp-98">
          <mxGeometry x="30" width="220" height="30" as="geometry">
            <mxRectangle width="220" height="30" as="alternateBounds" />
          </mxGeometry>
        </mxCell>
        <mxCell id="wVWFbtOWtliaWHri5OGp-101" value="" style="shape=partialRectangle;collapsible=0;dropTarget=0;pointerEvents=0;fillColor=none;points=[[0,0.5],[1,0.5]];portConstraint=eastwest;top=0;left=0;right=0;bottom=0;" vertex="1" parent="wVWFbtOWtliaWHri5OGp-91">
          <mxGeometry y="120" width="250" height="30" as="geometry" />
        </mxCell>
        <mxCell id="wVWFbtOWtliaWHri5OGp-102" value="" style="shape=partialRectangle;overflow=hidden;connectable=0;fillColor=none;top=0;left=0;bottom=0;right=0;" vertex="1" parent="wVWFbtOWtliaWHri5OGp-101">
          <mxGeometry width="30" height="30" as="geometry">
            <mxRectangle width="30" height="30" as="alternateBounds" />
          </mxGeometry>
        </mxCell>
        <mxCell id="wVWFbtOWtliaWHri5OGp-103" value="grade   " style="shape=partialRectangle;overflow=hidden;connectable=0;fillColor=none;top=0;left=0;bottom=0;right=0;align=left;spacingLeft=6;" vertex="1" parent="wVWFbtOWtliaWHri5OGp-101">
          <mxGeometry x="30" width="220" height="30" as="geometry">
            <mxRectangle width="220" height="30" as="alternateBounds" />
          </mxGeometry>
        </mxCell>
      </root>
    </mxGraphModel>
  </diagram>
</mxfile>
